<svg width="180" height="120" viewBox="0 0 180 120" fill="none" xmlns="http://www.w3.org/2000/svg">
<rect x="110" y="50" width="60" height="40" rx="5" fill="#E0E7FF"/>
<rect x="115" y="55" width="50" height="30" fill="#C7D2FE"/>
<path d="M110 82H170" stroke="#A5B4FC" stroke-width="2"/>
<rect x="125" y="40" width="10" height="10" rx="2" fill="#E0E7FF"/>
<circle cx="155" cy="65" r="10" fill="#E0E7FF"/>
<circle cx="155" cy="65" r="8" fill="white"/>
<path d="M155 60V65H160" stroke="#A5B4FC"/>
<g id="character">
    <path d="M96.5 53.95C96.5 52.049 98.049 50.5 99.95 50.5H110.05C111.951 50.5 113.5 52.049 113.5 53.95V60.5H96.5V53.95Z" fill="#6366F1"/>
    <rect x="96.5" y="60.5" width="17" height="25" fill="#818CF8"/>
    <path d="M99 53C99 51.8954 99.8954 51 101 51H109C110.105 51 111 51.8954 111 53V55H99V53Z" fill="#312E81"/>
    <path d="M102 55C102 54.4477 102.448 54 103 54H107C107.552 54 108 54.4477 108 55H102Z" fill="#C7D2FE"/>
    <ellipse cx="105" cy="45" rx="9" ry="10" fill="#F3E8FF"/>
    <path d="M105 35C100.029 35 96 39.0294 96 44C96 45.6918 96.4633 47.2843 97.2837 48.6662C99.2393 47.6331 101.996 47 105 47C108.004 47 110.761 47.6331 112.716 48.6662C113.537 47.2843 114 45.6918 114 44C114 39.0294 109.971 35 105 35Z" fill="#312E81"/>
    <ellipse cx="102" cy="45" rx="1" ry="1.5" fill="black"/>
    <ellipse cx="108" cy="45" rx="1" ry="1.5" fill="black"/>
    <path d="M104 49C104 48.4477 104.448 48 105 48C105.552 48 106 48.4477 106 49C106 49.5523 105.552 50 105 50C104.448 50 104 49.5523 104 49Z" fill="#FCA5A5"/>
    <rect x="80" y="70" width="30" height="20" rx="3" fill="#E0E7FF"/>
    <rect x="82" y="72" width="26" height="13" fill="white"/>
    <path d="M80 85H110" stroke="#A5B4FC" stroke-width="2"/>
</g>
<g id="plants">
    <path d="M165 90V80" stroke="#34D399" stroke-width="2" stroke-linecap="round"/>
    <path d="M165 85C167.761 85 170 82.7614 170 80" stroke="#34D399" stroke-width="2" stroke-linecap="round"/>
    <path d="M165 85C162.239 85 160 82.7614 160 80" stroke="#34D399" stroke-width="2" stroke-linecap="round"/>
</g>
</svg>